<svg width="480" height="128" viewBox="0 0 480 128" fill="none" xmlns="http://www.w3.org/2000/svg">
<rect width="480" height="128" />
<path d="M37.73 68.578V59.404C29.51 56.446 27.572 45.718 34.232 40.072C37.88 36.994 43.052 36.514 47.198 38.878C54.764 43.252 54.764 54.172 47.198 58.534C46.592 58.882 45.95 59.176 45.296 59.41V68.578C53.528 71.482 55.526 82.216 48.896 87.898C42.26 93.574 31.964 89.932 30.368 81.352C29.342 75.862 32.456 70.438 37.73 68.578ZM90.698 68.578V59.404C82.46 56.494 80.456 45.766 87.092 40.09C93.734 34.408 104.024 38.038 105.626 46.624C106.652 52.114 103.526 57.538 98.264 59.404V68.578C106.49 71.488 108.482 82.228 101.846 87.898C95.198 93.574 84.908 89.926 83.318 81.34C82.304 75.844 85.424 70.432 90.698 68.578ZM64.208 83.848V44.128C55.976 41.212 53.984 30.478 60.62 24.808C67.262 19.132 77.552 22.768 79.148 31.354C80.168 36.844 77.042 42.262 71.774 44.128V83.86C80.012 86.776 82.004 97.516 75.368 103.186C68.732 108.868 58.43 105.226 56.834 96.64C55.82 91.144 58.946 85.732 64.208 83.86V83.848ZM71.774 33.412C71.774 30.508 68.624 28.69 66.104 30.148C64.934 30.814 64.208 32.068 64.208 33.412C64.208 36.334 67.37 38.158 69.884 36.7C71.054 36.022 71.774 34.78 71.774 33.412ZM71.774 94.564C71.774 91.654 68.624 89.83 66.098 91.288C64.922 91.966 64.208 93.22 64.208 94.564C64.208 97.48 67.37 99.292 69.884 97.84C71.06 97.168 71.78 95.914 71.774 94.564ZM92.576 45.43C90.05 46.87 90.02 50.506 92.534 51.988C93.716 52.678 95.174 52.678 96.362 51.988C98.87 50.506 98.852 46.87 96.314 45.43C95.156 44.782 93.746 44.782 92.576 45.43ZM43.406 82.552C45.986 81.19 46.124 77.554 43.658 76.006C42.422 75.232 40.862 75.232 39.632 76.006C37.154 77.536 37.268 81.172 39.836 82.552C40.952 83.152 42.302 83.152 43.406 82.552ZM92.576 82.552C95.042 84.118 98.264 82.426 98.378 79.522C98.45 78.052 97.658 76.69 96.362 76.012C93.782 74.656 90.71 76.606 90.824 79.51C90.878 80.752 91.538 81.886 92.576 82.552ZM41.504 52.486C44.42 52.492 46.256 49.336 44.804 46.816C44.132 45.652 42.884 44.926 41.522 44.92C38.612 44.914 36.788 48.058 38.24 50.59C38.912 51.76 40.16 52.48 41.504 52.486Z" fill="#14B8A6"/>
<path d="M169.938 43.3125V72.875C169.938 76.0208 169.24 78.8646 167.844 81.4062C166.469 83.9271 164.375 85.9271 161.562 87.4062C158.771 88.8854 155.25 89.625 151 89.625C144.958 89.625 140.354 88.0833 137.188 85C134.021 81.9167 132.438 77.8333 132.438 72.75V43.3125H142.094V71.2812C142.094 75.0521 142.865 77.6979 144.406 79.2188C145.948 80.7396 148.229 81.5 151.25 81.5C153.375 81.5 155.094 81.1354 156.406 80.4062C157.74 79.6771 158.719 78.5521 159.344 77.0312C159.969 75.5104 160.281 73.5729 160.281 71.2188V43.3125H169.938ZM200.219 53.4062C203.948 53.4062 206.948 54.4271 209.219 56.4688C211.49 58.4896 212.625 61.7396 212.625 66.2188V89H203.094V68.5938C203.094 66.0938 202.635 64.2083 201.719 62.9375C200.823 61.6667 199.406 61.0312 197.469 61.0312C194.552 61.0312 192.562 62.0208 191.5 64C190.438 65.9792 189.906 68.8333 189.906 72.5625V89H180.375V54.0625H187.656L188.938 58.5312H189.469C190.219 57.3229 191.146 56.3438 192.25 55.5938C193.375 54.8438 194.615 54.2917 195.969 53.9375C197.344 53.5833 198.76 53.4062 200.219 53.4062ZM231.969 54.0625V89H222.438V54.0625H231.969ZM227.219 40.375C228.635 40.375 229.854 40.7083 230.875 41.375C231.896 42.0208 232.406 43.2396 232.406 45.0312C232.406 46.8021 231.896 48.0312 230.875 48.7188C229.854 49.3854 228.635 49.7188 227.219 49.7188C225.781 49.7188 224.552 49.3854 223.531 48.7188C222.531 48.0312 222.031 46.8021 222.031 45.0312C222.031 43.2396 222.531 42.0208 223.531 41.375C224.552 40.7083 225.781 40.375 227.219 40.375ZM284.219 66.0938C284.219 69.6146 283.781 72.8229 282.906 75.7188C282.031 78.5938 280.698 81.0729 278.906 83.1562C277.135 85.2396 274.885 86.8438 272.156 87.9688C269.427 89.0729 266.198 89.625 262.469 89.625C258.74 89.625 255.51 89.0729 252.781 87.9688C250.052 86.8438 247.792 85.2396 246 83.1562C244.229 81.0729 242.906 78.5833 242.031 75.6875C241.156 72.7917 240.719 69.5729 240.719 66.0312C240.719 61.3021 241.49 57.1875 243.031 53.6875C244.594 50.1667 246.99 47.4375 250.219 45.5C253.448 43.5625 257.552 42.5938 262.531 42.5938C267.49 42.5938 271.562 43.5625 274.75 45.5C277.958 47.4375 280.333 50.1667 281.875 53.6875C283.438 57.2083 284.219 61.3438 284.219 66.0938ZM250.875 66.0938C250.875 69.2812 251.271 72.0312 252.062 74.3438C252.875 76.6354 254.135 78.4062 255.844 79.6562C257.552 80.8854 259.76 81.5 262.469 81.5C265.219 81.5 267.448 80.8854 269.156 79.6562C270.865 78.4062 272.104 76.6354 272.875 74.3438C273.667 72.0312 274.062 69.2812 274.062 66.0938C274.062 61.3021 273.167 57.5312 271.375 54.7812C269.583 52.0312 266.635 50.6562 262.531 50.6562C259.802 50.6562 257.573 51.2812 255.844 52.5312C254.135 53.7604 252.875 55.5312 252.062 57.8438C251.271 60.1354 250.875 62.8854 250.875 66.0938ZM312.781 53.4062C316.51 53.4062 319.51 54.4271 321.781 56.4688C324.052 58.4896 325.188 61.7396 325.188 66.2188V89H315.656V68.5938C315.656 66.0938 315.198 64.2083 314.281 62.9375C313.385 61.6667 311.969 61.0312 310.031 61.0312C307.115 61.0312 305.125 62.0208 304.062 64C303 65.9792 302.469 68.8333 302.469 72.5625V89H292.938V54.0625H300.219L301.5 58.5312H302.031C302.781 57.3229 303.708 56.3438 304.812 55.5938C305.938 54.8438 307.177 54.2917 308.531 53.9375C309.906 53.5833 311.323 53.4062 312.781 53.4062ZM349.406 53.4062C352.635 53.4062 355.417 54.0312 357.75 55.2812C360.083 56.5104 361.885 58.3021 363.156 60.6562C364.427 63.0104 365.062 65.8854 365.062 69.2812V73.9062H342.531C342.635 76.5938 343.438 78.7083 344.938 80.25C346.458 81.7708 348.562 82.5312 351.25 82.5312C353.479 82.5312 355.521 82.3021 357.375 81.8438C359.229 81.3854 361.135 80.6979 363.094 79.7812V87.1562C361.365 88.0104 359.552 88.6354 357.656 89.0312C355.781 89.4271 353.5 89.625 350.812 89.625C347.312 89.625 344.208 88.9792 341.5 87.6875C338.812 86.3958 336.698 84.4271 335.156 81.7812C333.635 79.1354 332.875 75.8021 332.875 71.7812C332.875 67.6979 333.562 64.3021 334.938 61.5938C336.333 58.8646 338.271 56.8229 340.75 55.4688C343.229 54.0938 346.115 53.4062 349.406 53.4062ZM349.469 60.1875C347.615 60.1875 346.073 60.7812 344.844 61.9688C343.635 63.1562 342.938 65.0208 342.75 67.5625H356.125C356.104 66.1458 355.844 64.8854 355.344 63.7812C354.865 62.6771 354.135 61.8021 353.156 61.1562C352.198 60.5104 350.969 60.1875 349.469 60.1875ZM418.156 89L414.844 78.125H398.188L394.875 89H384.438L400.562 43.125H412.406L428.594 89H418.156ZM412.531 70L409.219 59.375C409.01 58.6667 408.729 57.7604 408.375 56.6562C408.042 55.5312 407.698 54.3958 407.344 53.25C407.01 52.0833 406.74 51.0729 406.531 50.2188C406.323 51.0729 406.031 52.1354 405.656 53.4062C405.302 54.6562 404.958 55.8438 404.625 56.9688C404.292 58.0938 404.052 58.8958 403.906 59.375L400.625 70H412.531ZM434.375 89V43.3125H444.062V89H434.375Z" fill="black"/>
</svg>
